<svg width="40" height="40" fill="none" xmlns="http://www.w3.org/2000/svg"><path d="M20 0C8.955 0 0 8.955 0 20s8.955 20 20 20 20-8.955 20-20S31.045 0 20 0zm13.266 10.272l1.795 3.113-3.52 2.03-1.795-3.113 3.52-2.03zm-15.062-6.62h3.592v4.064h-3.592V3.652zM13.38 4.945l2.03 3.52-3.113 1.795-2.03-3.52 3.113-1.795zm-9.727 13.26h4.064v3.59H3.652v-3.59zM6.74 29.733L4.946 26.62l3.52-2.03 1.795 3.113-3.52 2.03zm1.719-14.32l-3.52-2.029 1.796-3.113 3.52 2.03-1.796 3.113zm4.92 19.647l-3.113-1.795 2.03-3.52 3.113 1.796-2.03 3.52zm8.417 1.293h-3.592V32.29h3.592v4.064zM20.12 26.46c-2.748 0-4.652-1.868-4.813-3.855l2.514-.563c.06 1.168.952 2.125 2.299 2.125 1.209 0 2.179-.796 2.179-2.065 0-1.442-1.072-2.125-2.24-2.125-.855 0-1.538.39-1.945.856a90.56 90.56 0 00-2.454-.838l1.503-6.483h7.13v2.317h-5.299l-.622 2.783c.544-.509 1.442-.778 2.28-.778 2.533 0 4.323 1.52 4.323 4.226-.006 2.353-1.82 4.4-4.855 4.4zm6.5 8.602l-2.029-3.52 3.113-1.795 2.03 3.52-3.113 1.795zm1.078-24.807L24.585 8.46l2.03-3.52 3.113 1.796-2.03 3.52zm5.568 19.48l-3.52-2.03 1.796-3.113 3.52 2.03-1.796 3.113zm-.976-7.938v-3.592h4.064v3.592H32.29z" fill="#A3D5FB"/></svg>