<svg width="720" height="200" viewBox="0 0 720 200" fill="none" xmlns="http://www.w3.org/2000/svg">
  <rect width="720" height="200" fill="none"/>
  <g transform="translate(0,20)">
    
  <defs>
    <linearGradient id="bg" x1="0" y1="0" x2="160" y2="160" gradientUnits="userSpaceOnUse">
      <stop offset="0" stop-color="#0B1220"/>
      <stop offset="1" stop-color="#0F172A"/>
    </linearGradient>

    <radialGradient id="vignette" cx="0" cy="0" r="1" gradientUnits="userSpaceOnUse"
      gradientTransform="translate(80 72) rotate(90) scale(120 120)">
      <stop offset="0" stop-color="#000000" stop-opacity="0"/>
      <stop offset="1" stop-color="#000000" stop-opacity="0.35"/>
    </radialGradient>

    <linearGradient id="panel" x1="24" y1="24" x2="136" y2="136" gradientUnits="userSpaceOnUse">
      <stop stop-color="#2FE1C3"/>
      <stop offset="1" stop-color="#60A5FA"/>
    </linearGradient>

    <radialGradient id="glow" cx="0" cy="0" r="1" gradientUnits="userSpaceOnUse"
      gradientTransform="translate(113 48) rotate(90) scale(34 34)">
      <stop offset="0" stop-color="#2FE1C3" stop-opacity="0.35"/>
      <stop offset="1" stop-color="#2FE1C3" stop-opacity="0"/>
    </radialGradient>

    <filter id="softShadow" x="-20%" y="-20%" width="140%" height="140%" color-interpolation-filters="sRGB">
      <feDropShadow dx="0" dy="2" stdDeviation="2" flood-color="#000000" flood-opacity="0.35"/>
    </filter>

    <filter id="panelShadow" x="-20%" y="-20%" width="140%" height="140%" color-interpolation-filters="sRGB">
      <feDropShadow dx="0" dy="6" stdDeviation="10" flood-color="#000000" flood-opacity="0.35"/>
    </filter>
  </defs>

  <!-- Background -->
  <rect width="160" height="160" rx="36" fill="url(#bg)"/>
  <rect width="160" height="160" rx="36" fill="url(#vignette)"/>

  <!-- Inner panel -->
  <g filter="url(#panelShadow)">
    <rect x="24" y="24" width="112" height="112" rx="28" fill="url(#panel)" opacity="0.14"/>
    <rect x="24" y="24" width="112" height="112" rx="28" fill="none" stroke="#FFFFFF" stroke-opacity="0.08"/>
  </g>

  <!-- Glow behind dot -->
  <circle cx="113" cy="48" r="34" fill="url(#glow)"/>

  <!-- Mark -->
  <g filter="url(#softShadow)">
    <path d="M48 102V58H58L85 91V58H96V102H86L59 69V102H48Z" fill="#E2E8F0"/>
    <path d="M107 58H118V102H107V58Z" fill="#2FE1C3"/>
    <circle cx="113" cy="48" r="8" fill="#2FE1C3"/>
  </g>


  </g>
  <text x="190" y="108"
    font-family="Inter, ui-sans-serif, system-ui, -apple-system, Segoe UI, Roboto, Arial"
    font-size="72"
    font-weight="700"
    letter-spacing="-1.5"
    fill="#E2E8F0">nex<tspan fill="#2FE1C3">ID</tspan></text>
  <text x="190" y="146"
    font-family="Inter, ui-sans-serif, system-ui, -apple-system, Segoe UI, Roboto, Arial"
    font-size="22"
    font-weight="500"
    letter-spacing="0.2"
    fill="#E2E8F0" opacity="0.72">Identity Gateway • NFC Authentication • Digital Product Passports</text>
</svg>
