<svg width="24" height="24" fill="none" xmlns="http://www.w3.org/2000/svg"><path fill-rule="evenodd" clip-rule="evenodd" d="M4.636 12a7.364 7.364 0 1112.191 5.56 3.04 3.04 0 00-.738-1.39 2.801 2.801 0 00-2.044-.897h-4.09c-.778 0-1.511.33-2.044.897a3.04 3.04 0 00-.738 1.39A7.346 7.346 0 014.636 12zm4.09 6.597c.986.49 2.098.767 3.274.767a7.334 7.334 0 003.274-.767.895.895 0 01-.001-.052v-.272c0-.378-.142-.731-.378-.983a1.165 1.165 0 00-.85-.38h-4.09c-.308 0-.615.129-.85.38a1.44 1.44 0 00-.378.983v.272l-.001.052zM12 3a9 9 0 100 18 9 9 0 000-18zm0 5.727A1.636 1.636 0 1012 12a1.636 1.636 0 000-3.273zm-3.273 1.637a3.273 3.273 0 116.546 0 3.273 3.273 0 01-6.546 0z" fill="#393855"/></svg>