<svg xmlns="http://www.w3.org/2000/svg" xmlns:xlink="http://www.w3.org/1999/xlink" viewBox="0 0 48 48"><defs><path id="a" d="M44.5 20H24v8.5h11.8C34.7 33.9 30.1 37 24 37c-7.2 0-13-5.8-13-13s5.8-13 13-13c3.1 0 5.9 1.1 8.1 2.9l6.4-6.4C34.6 4.1 29.6 2 24 2 11.8 2 2 11.8 2 24s9.8 22 22 22c11 0 21-8 21-22 0-1.3-.2-2.7-.5-4z"/></defs><use xlink:href="#a" overflow="visible" fill="#fff"/><clipPath id="b"><use xlink:href="#a" overflow="visible"/></clipPath><path d="M0 37V11l17 13z" clip-path="url(#b)" fill="#fff"/><defs><path id="c" d="M44.5 20H24v8.5h11.8C34.7 33.9 30.1 37 24 37c-7.2 0-13-5.8-13-13s5.8-13 13-13c3.1 0 5.9 1.1 8.1 2.9l6.4-6.4C34.6 4.1 29.6 2 24 2 11.8 2 2 11.8 2 24s9.8 22 22 22c11 0 21-8 21-22 0-1.3-.2-2.7-.5-4z"/></defs><use xlink:href="#c" overflow="visible" fill="#fff"/><clipPath id="d"><use xlink:href="#c" overflow="visible"/></clipPath><path d="M0 11l17 13 7-6.1L48 14V0H0z" clip-path="url(#d)" fill="#fff"/><g><defs><path id="e" d="M44.5 20H24v8.5h11.8C34.7 33.9 30.1 37 24 37c-7.2 0-13-5.8-13-13s5.8-13 13-13c3.1 0 5.9 1.1 8.1 2.9l6.4-6.4C34.6 4.1 29.6 2 24 2 11.8 2 2 11.8 2 24s9.8 22 22 22c11 0 21-8 21-22 0-1.3-.2-2.7-.5-4z"/></defs><use xlink:href="#e" overflow="visible" fill="#fff"/><clipPath id="f"><use xlink:href="#e" overflow="visible"/></clipPath><path d="M0 37l30-23 7.9 1L48 0v48H0z" clip-path="url(#f)" fill="#fff"/></g><g><defs><path id="g" d="M44.5 20H24v8.5h11.8C34.7 33.9 30.1 37 24 37c-7.2 0-13-5.8-13-13s5.8-13 13-13c3.1 0 5.9 1.1 8.1 2.9l6.4-6.4C34.6 4.1 29.6 2 24 2 11.8 2 2 11.8 2 24s9.8 22 22 22c11 0 21-8 21-22 0-1.3-.2-2.7-.5-4z"/></defs><use xlink:href="#g" overflow="visible" fill="#fff"/><clipPath id="h"><use xlink:href="#g" overflow="visible"/></clipPath><path d="M48 48L17 24l-4-3 35-10z" clip-path="url(#h)" fill="#fff"/></g></svg>