<svg width="110" height="110" fill="none" xmlns="http://www.w3.org/2000/svg"><path d="M55 105c27.614 0 50-22.386 50-50S82.614 5 55 5 5 27.386 5 55s22.386 50 50 50z" stroke="#ED795E" stroke-width="10" stroke-miterlimit="10"/><path d="M60.849 5.33c13.693 12.157 22.34 29.89 22.34 49.652 0 19.744-8.63 37.496-22.322 49.653M49.131 5.33c-13.693 12.157-22.34 29.89-22.34 49.652 0 19.744 8.629 37.496 22.322 49.653" stroke="#ED795E" stroke-width="10" stroke-miterlimit="10"/><path d="M97.467 26.024C86.589 36.9 71.58 43.61 54.999 43.61c-16.07 0-30.658-6.307-41.444-16.6M97.467 83.957C86.589 73.08 71.58 66.371 54.999 66.371c-16.07 0-30.658 6.307-41.444 16.6M104.981 55H5M54.999 104.982V5" stroke="#ED795E" stroke-width="10" stroke-miterlimit="10"/></svg>