<svg fill="none" height="24" width="24" xmlns="http://www.w3.org/2000/svg"><path clip-rule="evenodd" d="M12.749 15.85h-3.41v2.196h2.603a.407.407 0 110 .814h-6.02a.407.407 0 110-.814h2.603v-2.197H2.912A1.912 1.912 0 011 13.937V6.412C1 5.356 1.856 4.5 2.912 4.5h12.04c1.057 0 1.913.856 1.913 1.912v1.88c-.28.062-.552.143-.814.244V6.412c0-.607-.492-1.098-1.098-1.098H2.912c-.607 0-1.098.491-1.098 1.098v7.525c0 .607.491 1.099 1.098 1.099h9.601c.059.279.138.55.236.813z" fill="#393855" fill-rule="evenodd"/><path d="M9.339 15.85v-.5a.5.5 0 00-.5.5zm3.41 0v.5a.5.5 0 00.468-.676zm-3.41 2.196h-.5a.5.5 0 00.5.5zm-.814 0v.5a.5.5 0 00.5-.5zm0-2.197h.5a.5.5 0 00-.5-.5zm8.34-7.556l.106.488a.5.5 0 00.393-.488zm-.814.243h-.5a.5.5 0 00.679.467zm-7.124 6.5v.5h.003zm.005 0l.004-.5h-.007zm.006 0l-.003.5h.003zm3.575 0l.49-.103a.5.5 0 00-.49-.397zm-3.174 1.313h3.41v-1h-3.41zm.5 1.697v-2.197h-1v2.197zm2.103-.5H9.34v1h2.603zm.907.907c0-.501-.406-.907-.907-.907v1a.093.093 0 01-.093-.093zm-.907.907c.501 0 .907-.406.907-.907h-1c0-.052.042-.093.093-.093zm-6.02 0h6.02v-1h-6.02zm-.907-.907c0 .5.406.907.907.907v-1c.051 0 .093.041.093.093zm.907-.907c-.5 0-.907.406-.907.907h1a.093.093 0 01-.093.093zm2.603 0H5.922v1h2.603zm-.5-1.697v2.197h1v-2.197zm-5.113.5h5.613v-1H2.912zM.5 13.937a2.412 2.412 0 002.412 2.412v-1c-.78 0-1.412-.632-1.412-1.412zm0-7.525v7.525h1V6.412zM2.912 4A2.412 2.412 0 00.5 6.412h1C1.5 5.632 2.132 5 2.912 5zm12.04 0H2.913v1h12.04zm2.412 2.412A2.412 2.412 0 0014.953 4v1c.78 0 1.411.632 1.411 1.412zm0 1.88v-1.88h-1v1.88zm-1.134.71c.239-.09.486-.165.741-.22l-.213-.978a6.15 6.15 0 00-.886.265zm.32-.466V6.412h-1v2.124zm0-2.124c0-.883-.715-1.598-1.597-1.598v1c.33 0 .598.267.598.598zm-1.597-1.598H2.912v1h12.04zm-12.041 0c-.883 0-1.598.715-1.598 1.598h1c0-.33.267-.598.598-.598zM1.314 6.412v7.525h1V6.412zm0 7.525c0 .883.715 1.599 1.598 1.599v-1a.598.598 0 01-.598-.599zm1.598 1.599h6.014v-1H2.912zm6.018 0h.006l-.007-1h-.006zm-.001 0h.006l.006-1h-.005zm.009 0h3.575v-1H8.938zm4.28.138a5.163 5.163 0 01-.216-.741l-.978.206c.064.304.15.6.257.885z" fill="#393855"/><circle cx="19" cy="14.25" r="3.5" stroke="#393855" stroke-width="2"/></svg>