<svg fill="none" height="24" width="24" xmlns="http://www.w3.org/2000/svg"><path clip-rule="evenodd" d="M2 5.727A2.727 2.727 0 014.727 3h14.546A2.727 2.727 0 0122 5.727v9.091a2.727 2.727 0 01-2.727 2.728h-4.148l1.3 2.276a.909.909 0 01-.789 1.36H8.364a.91.91 0 01-.79-1.36l1.301-2.276H4.727A2.727 2.727 0 012 14.818zm2.727-.909a.91.91 0 00-.909.91v6.363h16.364V5.727a.91.91 0 00-.91-.909zm15.455 9.091H3.818v.91c0 .501.407.908.91.908h14.545a.91.91 0 00.909-.909zm-9.213 3.636L9.93 19.364h4.14l-1.04-1.818z" fill="#393855" fill-rule="evenodd"/></svg>