<svg width="160" height="180" viewBox="0 0 160 180" fill="none" xmlns="http://www.w3.org/2000/svg">
<path fill-rule="evenodd" clip-rule="evenodd" d="M166.523 -20.5794L169.979 -17.1234C171.717 -15.3856 173.039 -13.3895 173.945 -11.2587C166.76 -11.8858 159.522 -8.41659 155.664 -1.77107C159.49 -8.43525 158.875 -16.438 154.74 -22.3468C157.037 -22.6276 159.426 -22.4809 161.8 -21.845L166.523 -20.5794ZM153.133 50.501L188.698 40.9714C196.011 39.0119 201.132 32.954 202.252 25.9302C196.494 21.7555 188.589 21.0929 182.031 24.8787L150.146 43.288C149.924 44.7777 149.548 46.3476 149.025 47.9773C150.548 48.7597 151.924 49.604 153.133 50.501ZM181.432 23.8398L150.317 41.8041C150.612 38.1378 149.878 35.0425 147.986 32.8621L170.827 10.0212C176.181 4.66689 183.989 3.26061 190.632 5.80235C191.368 12.8768 187.989 20.054 181.432 23.8398ZM169.979 9.17293L147.138 32.0139C144.958 30.1223 141.862 29.3877 138.196 29.6833L156.159 -1.42996C159.946 -7.98829 167.123 -11.3678 174.198 -10.6318C176.74 -3.98889 175.333 3.81854 169.979 9.17293ZM155.12 -2.02974L136.712 29.8543C135.222 30.0754 133.652 30.4514 132.023 30.9747C131.24 29.4523 130.396 28.0763 129.499 26.8666L139.028 -8.69475C140.988 -16.01 147.046 -21.1324 154.07 -22.2526C158.245 -16.4939 158.907 -8.58805 155.12 -2.02974ZM120 21.5C124.316 21.5 128.389 25.0298 131.542 31.1328C127.904 32.3565 123.982 34.3002 120 36.8815C116.018 34.3002 112.096 32.3565 108.458 31.1327C111.611 25.0298 115.684 21.5 120 21.5ZM107.977 30.9746C108.76 29.4522 109.604 28.0761 110.501 26.8663L100.973 -8.69473C99.0125 -16.01 92.9539 -21.1324 85.93 -22.2526C81.7555 -16.4939 81.0933 -8.58807 84.8798 -2.02976L103.288 29.8543C104.778 30.0754 106.348 30.4514 107.977 30.9746ZM101.804 29.6832L83.8411 -1.42994C80.0547 -7.98817 72.8771 -11.3676 65.8027 -10.6318C63.2608 -3.98891 64.6671 3.81853 70.0214 9.17291L92.8622 32.0136C95.0425 30.1222 98.1379 29.3876 101.804 29.6832ZM92.4229 32.4228L69.5973 9.59705C64.1498 4.14953 62.6612 -3.75778 65.1317 -10.5496C62.8392 -10.226 60.5692 -9.46589 58.4411 -8.23726L54.2071 -5.79271L51.7638 -1.56087C50.5349 0.567719 49.7746 2.83826 49.4508 5.13127C56.2425 2.66109 64.1496 4.1497 69.597 9.59711L92.4228 32.4229C92.4229 32.4229 92.4229 32.4229 92.4229 32.4228ZM92.0137 32.8621L69.1729 10.0212C63.8186 4.66697 56.0114 3.26065 49.3686 5.8023C48.6326 12.8768 52.0112 20.054 58.5685 23.8398L89.6833 41.804C89.3878 38.1377 90.1223 35.0424 92.0137 32.8621ZM89.8544 43.2879L57.9687 24.8787C51.4116 21.093 43.5067 21.7555 37.7481 25.93C38.8682 32.9539 43.9889 39.0118 51.3021 40.9714L86.8666 50.5009C88.0764 49.6039 89.4524 48.7596 90.9748 47.9773C90.4515 46.3476 90.0755 44.7776 89.8544 43.2879ZM91.4266 47.749C89.3403 41.2044 89.7247 35.8281 92.7765 32.7764C95.8282 29.7247 101.204 29.3402 107.749 31.4265C106.042 34.8645 104.643 39.0121 103.653 43.6528C99.0122 44.643 94.8645 46.0417 91.4266 47.749ZM91.1328 48.4581C85.0298 51.6107 81.5 55.6842 81.5 60C81.5 64.3158 85.0298 68.3892 91.1327 71.5418C92.3564 67.9034 94.3002 63.9815 96.8816 59.9998C94.3003 56.0183 92.3566 52.0964 91.1328 48.4581ZM97.181 59.542C94.9208 56.03 93.1649 52.5725 91.9693 49.3271C91.8332 48.9579 91.7046 48.5919 91.5834 48.2294C91.9254 48.0587 92.2751 47.8909 92.6324 47.7261C95.7727 46.2767 99.4592 45.0734 103.541 44.1883C102.991 46.8715 102.577 49.7141 102.317 52.6753C100.407 54.9529 98.6895 57.2558 97.181 59.542ZM97.181 60.4577C94.9207 63.9698 93.1647 67.4274 91.969 70.6729C91.833 71.0421 91.7044 71.408 91.5832 71.7705C91.9253 71.9412 92.2751 72.109 92.6324 72.2739C95.7727 73.7233 99.4592 74.9266 103.541 75.8117C102.991 73.1284 102.577 70.2857 102.317 67.3244C100.407 65.0469 98.6895 62.7439 97.181 60.4577ZM102.246 66.4563C100.478 64.3104 98.8847 62.1462 97.4784 59.9998C98.8847 57.8535 100.478 55.6894 102.246 53.5434C102.084 55.6436 102 57.8005 102 60C102 62.1994 102.084 64.3562 102.246 66.4563ZM102.88 67.9888C103.148 70.7561 103.551 73.413 104.075 75.9252C106.587 76.4485 109.244 76.8521 112.011 77.1197C110.412 75.7489 108.827 74.2831 107.272 72.7279C105.717 71.1727 104.251 69.588 102.88 67.9888ZM112.876 77.1986C111.104 75.7065 109.347 74.096 107.626 72.3744C105.904 70.6527 104.294 68.8957 102.801 67.1238C102.604 64.8158 102.5 62.4347 102.5 60C102.5 57.5652 102.604 55.184 102.801 52.876C104.293 51.1041 105.904 49.3472 107.626 47.6257C109.347 45.904 111.104 44.2935 112.876 42.8014C115.184 42.6036 117.565 42.5 120 42.5C122.435 42.5 124.816 42.6036 127.124 42.8014C128.896 44.2935 130.653 45.904 132.374 47.6256C134.096 49.3472 135.706 51.1041 137.199 52.876C137.396 55.184 137.5 57.5652 137.5 60C137.5 62.4347 137.396 64.8158 137.199 67.1238C135.706 68.8957 134.096 70.6527 132.374 72.3744C130.653 74.096 128.896 75.7065 127.124 77.1986C124.816 77.3964 122.435 77.5 120 77.5C117.565 77.5 115.184 77.3964 112.876 77.1986ZM112.676 77.6831C109.714 77.4234 106.872 77.0091 104.188 76.4592C105.073 80.5408 106.277 84.2273 107.726 87.3676C107.891 87.7249 108.059 88.0746 108.229 88.4167C108.592 88.2955 108.958 88.1669 109.327 88.0309C112.572 86.8352 116.03 85.0792 119.542 82.8189C117.256 81.3105 114.953 79.5933 112.676 77.6831ZM120 82.5216C117.854 81.1153 115.69 79.522 113.544 77.7545C115.644 77.916 117.801 78 120 78C122.199 78 124.356 77.916 126.456 77.7545C124.31 79.522 122.146 81.1153 120 82.5216ZM120 83.1184C116.018 85.6997 112.096 87.6434 108.458 88.8672C111.611 94.9702 115.684 98.5 120 98.5C124.316 98.5 128.389 94.9702 131.542 88.8672C127.904 87.6434 123.982 85.6997 120 83.1184ZM131.771 88.4166C131.408 88.2955 131.042 88.1668 130.673 88.0308C127.428 86.8351 123.97 85.0792 120.458 82.8189C122.744 81.3105 125.047 79.5933 127.324 77.6831C130.286 77.4234 133.128 77.0091 135.812 76.4592C134.927 80.5408 133.723 84.2273 132.274 87.3676C132.109 87.7249 131.941 88.0746 131.771 88.4166ZM132.023 89.0253C131.24 90.5475 130.396 91.9235 129.499 93.1332L139.028 128.695C140.988 136.01 147.046 141.132 154.07 142.253C158.245 136.494 158.907 128.588 155.12 122.03L136.712 90.1457C135.222 89.9245 133.652 89.5485 132.023 89.0253ZM138.196 90.3168L156.159 121.43C159.946 127.988 167.123 131.368 174.198 130.632C176.74 123.989 175.333 116.182 169.979 110.827L147.138 87.9862C144.958 89.8778 141.862 90.6124 138.196 90.3168ZM147.986 87.138L170.827 109.979C176.181 115.333 183.989 116.739 190.631 114.198C191.367 107.123 187.989 99.9461 181.432 96.1602L150.317 78.1962C150.612 81.8624 149.878 84.9577 147.986 87.138ZM150.146 76.7121L182.031 95.1213C188.589 98.9071 196.493 98.2446 202.252 94.0701C201.132 87.0462 196.011 80.9882 188.698 79.0287L153.133 69.4991C151.924 70.3961 150.548 71.2403 149.025 72.0226C149.549 73.6524 149.925 75.2224 150.146 76.7121ZM148.574 72.2509C150.66 78.7955 150.275 84.1719 147.224 87.2236C144.172 90.2754 138.796 90.6597 132.251 88.5735C133.958 85.1355 135.357 80.9879 136.347 76.3472C140.988 75.357 145.136 73.9582 148.574 72.2509ZM148.867 71.5418C154.97 68.3892 158.5 64.3158 158.5 60C158.5 55.6842 154.97 51.6107 148.867 48.4581C147.643 52.0964 145.7 56.0183 143.118 59.9998C145.7 63.9815 147.644 67.9034 148.867 71.5418ZM142.819 60.4577C145.079 63.9698 146.835 67.4274 148.031 70.6729C148.167 71.0421 148.296 71.408 148.417 71.7705C148.075 71.9412 147.725 72.109 147.368 72.2739C144.227 73.7233 140.541 74.9266 136.459 75.8117C137.009 73.1284 137.423 70.2857 137.683 67.3244C139.593 65.0469 141.31 62.7439 142.819 60.4577ZM142.819 59.542C145.079 56.03 146.835 52.5725 148.031 49.3272C148.167 48.9579 148.295 48.5919 148.417 48.2294C148.075 48.0587 147.725 47.8909 147.368 47.7261C144.227 46.2767 140.541 45.0734 136.459 44.1883C137.009 46.8715 137.423 49.7141 137.683 52.6753C139.593 54.9529 141.31 57.2558 142.819 59.542ZM137.754 53.5434C139.522 55.6894 141.115 57.8535 142.522 59.9999C141.115 62.1462 139.522 64.3104 137.755 66.4563C137.916 64.3562 138 62.1994 138 60C138 57.8005 137.916 55.6436 137.754 53.5434ZM137.12 52.0109C136.852 49.2437 136.449 46.5869 135.925 44.0748C133.413 43.5515 130.756 43.1479 127.989 42.8803C129.588 44.2511 131.173 45.7169 132.728 47.2721C134.283 48.8273 135.749 50.4118 137.12 52.0109ZM127.325 42.317C130.286 42.5767 133.129 42.9909 135.812 43.5408C134.927 39.4592 133.723 35.7727 132.274 32.6324C132.109 32.2751 131.941 31.9254 131.771 31.5833C131.408 31.7045 131.042 31.8332 130.673 31.9692C127.427 33.1649 123.97 34.9208 120.458 37.181C122.744 38.6895 125.047 40.4066 127.325 42.317ZM119.542 37.181C117.256 38.6895 114.953 40.4066 112.675 42.317C109.714 42.5767 106.871 42.9909 104.188 43.5408C105.073 39.4592 106.277 35.7727 107.726 32.6324C107.891 32.2751 108.059 31.9254 108.229 31.5833C108.592 31.7045 108.958 31.8331 109.327 31.9692C112.573 33.1648 116.03 34.9208 119.542 37.181ZM120 37.4783C122.146 38.8846 124.311 40.478 126.457 42.2455C124.356 42.084 122.199 42 120 42C117.801 42 115.644 42.084 113.543 42.2455C115.689 40.478 117.854 38.8846 120 37.4783ZM104.075 44.0748C106.587 43.5515 109.244 43.1479 112.011 42.8803C110.412 44.2511 108.827 45.7169 107.272 47.2721C105.717 48.8273 104.251 50.4118 102.88 52.0109C103.148 49.2437 103.551 46.5869 104.075 44.0748ZM86.8667 69.4992C88.0764 70.3961 89.4523 71.2403 90.9746 72.0226C90.4513 73.6524 90.0753 75.2225 89.8541 76.7123L57.9687 95.1213C51.4116 98.9071 43.5068 98.2446 37.7482 94.0701C38.8682 87.0462 43.989 80.9882 51.3021 79.0287L86.8667 69.4992ZM58.5683 96.1602L89.6831 78.1961C89.3875 81.8624 90.1221 84.9577 92.0136 87.1381L69.1729 109.979C63.8186 115.333 56.0113 116.739 49.3684 114.198C48.6324 107.123 52.0111 99.9461 58.5683 96.1602ZM70.0215 110.827L92.862 87.9865C95.0425 89.8779 98.1379 90.6124 101.804 90.3168L83.841 121.43C80.0547 127.988 72.8771 131.368 65.8027 130.632C63.2608 123.989 64.667 116.181 70.0215 110.827ZM84.8796 122.03L103.288 90.1458C104.778 89.9246 106.348 89.5486 107.977 89.0253C108.76 90.5478 109.604 91.9239 110.501 93.1337L100.973 128.695C99.0125 136.01 92.9538 141.133 85.9299 142.253C81.7554 136.494 81.0932 128.588 84.8796 122.03ZM92.7763 87.2236C95.828 90.2754 101.204 90.6598 107.749 88.5735C106.042 85.1355 104.643 80.9879 103.653 76.3472C99.0121 75.357 94.8644 73.9582 91.4264 72.2509C89.3401 78.7955 89.7245 84.1719 92.7763 87.2236ZM135.925 75.9252C133.413 76.4485 130.756 76.8521 127.989 77.1197C129.588 75.7489 131.173 74.2832 132.728 72.728C134.283 71.1727 135.749 69.5881 137.12 67.9888C136.852 70.7561 136.449 73.413 135.925 75.9252ZM136.347 43.6528C140.988 44.643 145.135 46.0417 148.573 47.749C150.66 41.2044 150.275 35.8281 147.223 32.7764C144.172 29.7247 138.795 29.3403 132.251 31.4265C133.958 34.8645 135.357 39.0121 136.347 43.6528ZM85.6963 51.4293L50.9916 42.1302C43.6786 40.1707 36.215 42.8566 31.733 48.3792C34.6328 54.8739 41.1469 59.4001 48.7178 59.4001H81.0213C81.2255 56.5209 82.8949 53.8127 85.6963 51.4293ZM81.0212 60.5998L48.7177 60.5998C41.1468 60.5998 34.6328 65.126 31.7329 71.6207C36.2149 77.1434 43.6785 79.8294 50.9916 77.8698L85.6963 68.5707C82.8949 66.1873 81.2255 63.4791 81.0212 60.5998ZM154.304 68.5707L189.009 77.8698C196.322 79.8293 203.785 77.1434 208.267 71.6207C205.367 65.1261 198.853 60.5998 191.282 60.5998H158.979C158.775 63.479 157.105 66.1872 154.304 68.5707ZM158.979 59.4001H191.283C198.854 59.4001 205.368 54.8739 208.267 48.3792C203.785 42.8566 196.322 40.1707 189.009 42.1303L154.304 51.4295C157.105 53.8129 158.774 56.521 158.979 59.4001ZM137.869 -9.00521L128.571 25.6965C126.187 22.8949 123.479 21.2255 120.6 21.0212V-11.2785C120.6 -18.852 125.126 -25.3681 131.621 -28.268C137.144 -23.786 139.829 -16.3205 137.869 -9.00521ZM119.401 -11.2785V21.0212C116.521 21.2253 113.813 22.8946 111.43 25.6961L102.131 -9.00522C100.171 -16.3205 102.857 -23.786 108.38 -28.268C114.874 -25.3681 119.401 -18.852 119.401 -11.2785ZM101.552 -8.84999L110.961 26.2661L110.961 26.2662L101.552 -8.84995C99.5577 -16.2924 93.4538 -21.5361 86.3368 -22.7926C87.7633 -24.6161 89.5565 -26.2018 91.6844 -27.4304L95.9182 -29.8748H100.808C103.265 -29.8748 105.611 -29.3982 107.757 -28.5323C102.222 -23.8856 99.5578 -16.2925 101.552 -8.84999ZM102.131 129.005L111.429 94.3036C113.813 97.1052 116.521 98.7746 119.4 98.9788V131.278C119.4 138.852 114.874 145.368 108.379 148.268C102.857 143.786 100.171 136.321 102.131 129.005ZM120.6 131.278V98.9788C123.479 98.7745 126.187 97.1051 128.571 94.3035L137.869 129.005C139.829 136.321 137.144 143.786 131.621 148.268C125.126 145.368 120.6 138.852 120.6 131.278ZM208.532 47.757C203.885 42.2218 196.294 39.5572 188.854 41.5508C196.294 39.5572 201.536 33.4539 202.792 26.3369C204.616 27.7637 206.202 29.5575 207.431 31.6861L209.875 35.9185V40.8038C209.875 43.2621 209.398 45.609 208.532 47.757ZM29.5256 79.1961C29.5256 76.541 30.0646 74.0118 31.039 71.712C29.5025 69.7428 28.3274 67.4394 27.6402 64.8748L26.6445 61.1587L23.5527 72.6976L29.5256 83.0431V79.1961ZM28.2196 64.7196C28.8558 67.0941 29.9239 69.2375 31.3166 71.0881C34.3692 64.545 41.0021 60.0088 48.6952 60C41.0022 59.9911 34.3693 55.4549 31.3167 48.9118C29.9239 50.7624 28.8558 52.9059 28.2196 55.2804L26.955 60L28.2196 64.7196ZM51.1214 78.4561C43.6892 80.4369 36.11 77.7719 31.4686 72.2429C30.6023 74.3909 30.1254 76.7378 30.1254 79.1961V84.0819L32.5688 88.314C33.7978 90.4427 35.3841 92.2365 37.2082 93.6634C38.4631 86.5544 43.6945 80.4568 51.1214 78.4561ZM138.449 128.85C140.443 136.293 137.778 143.886 132.243 148.532C134.39 149.398 136.735 149.875 139.192 149.875H144.082L148.316 147.43C150.444 146.202 152.237 144.616 153.663 142.793C146.546 141.536 140.443 136.292 138.449 128.85ZM154.739 142.347C158.883 136.426 159.492 128.402 155.64 121.73C159.492 128.402 166.745 131.887 173.945 131.259C173.039 133.39 171.717 135.386 169.979 137.123L166.523 140.58L161.8 141.845C159.427 142.481 157.037 142.628 154.739 142.347ZM161.955 142.424C159.392 143.111 156.81 143.245 154.338 142.899C152.834 144.892 150.914 146.623 148.616 147.95L145.282 149.875H157.228L165.674 141.428L161.955 142.424ZM166.833 141.117L158.076 149.875H171.889L178.796 137.912L166.833 141.117ZM170.403 137.548C172.28 135.671 173.687 133.502 174.624 131.187C177.102 130.881 179.561 130.084 181.859 128.757L185.193 126.832L179.22 137.177L167.682 140.269L170.403 137.548ZM179.615 137.693L172.582 149.875H188.963L193.203 134.052L179.615 137.693ZM180.039 136.958L186.232 126.232L196.958 120.04L193.382 133.383L180.039 136.958ZM193.872 133.872L189.584 149.875H191.282C201.551 149.875 209.875 141.549 209.875 131.278V129.584L193.872 133.872ZM209.875 128.963L194.051 133.203L197.692 119.615L209.875 112.582V128.963ZM210.475 129.424V131.278C210.475 141.88 201.882 150.475 191.282 150.475H189.424L188.943 152.267C186.199 162.507 175.675 168.584 165.437 165.841L163.641 165.36L162.713 166.967C157.413 176.148 145.674 179.294 136.494 173.994L134.885 173.065L133.573 174.378C126.077 181.874 113.924 181.874 106.428 174.378L105.115 173.065L103.506 173.994C94.3257 179.294 82.587 176.148 77.2864 166.967L76.3585 165.36L74.5634 165.841C64.325 168.584 53.8007 162.507 51.0568 152.267L50.5766 150.475H48.7177C38.1182 150.475 29.5256 141.88 29.5256 131.278V129.424L27.7303 128.943C17.4919 126.199 11.4163 115.674 14.1602 105.433L14.6403 103.642L13.0313 102.713C3.85143 97.4126 0.70661 85.6734 6.00719 76.4926L6.93502 74.8855L5.62182 73.5723C-1.87395 66.0766 -1.87393 53.9235 5.62183 46.4278L6.93503 45.1146L6.00718 43.5075C0.706601 34.3266 3.85143 22.5875 13.0313 17.2875L14.6403 16.3585L14.1602 14.5666C11.4163 4.32626 17.4919 -6.19913 27.7303 -8.94252L29.5257 -9.4236V-11.2785C29.5257 -21.8802 38.1183 -30.4747 48.7178 -30.4747H50.5766L51.0567 -32.2666C53.8006 -42.5069 64.3249 -48.5844 74.5633 -45.841L76.3586 -45.3599L77.2866 -46.9672C82.5872 -56.1481 94.3259 -59.2941 103.506 -53.9941L105.115 -53.0651L106.428 -54.3782C113.924 -61.8739 126.077 -61.8739 133.573 -54.3782L134.885 -53.0652L136.494 -53.9941C145.674 -59.2941 157.413 -56.1481 162.714 -46.9672L163.642 -45.3599L165.437 -45.841C175.676 -48.5844 186.2 -42.5069 188.944 -32.2665L189.424 -30.4747H191.283C201.882 -30.4747 210.475 -21.8803 210.475 -11.2785V-9.42357L212.27 -8.94255C222.508 -6.19915 228.584 4.32625 225.84 14.5666L225.36 16.3586L226.969 17.2875C236.149 22.5875 239.294 34.3266 233.993 43.5075L233.065 45.1146L234.378 46.4277C241.874 53.9235 241.874 66.0765 234.378 73.5723L233.065 74.8854L233.993 76.4926C239.294 85.6735 236.149 97.4126 226.969 102.713L225.36 103.641L225.84 105.434C228.584 115.674 222.509 126.199 212.27 128.943L210.475 129.424ZM13.3313 17.807L14.8011 16.9584L19.0889 32.9607L7.3741 44.6755L6.52661 43.2076C1.39167 34.3136 4.43823 22.9414 13.3313 17.807ZM15.3388 16.6479L19.5786 32.471L29.5257 22.5238V8.45706L15.3388 16.6479ZM29.5257 23.3721L19.7578 33.14L23.3331 46.4832L29.5257 35.7572V23.3721ZM22.909 47.2177L19.2681 33.6297L7.68459 45.2133L15.8754 59.4002L22.909 47.2177ZM16.2217 60L23.1286 48.037L26.334 60L23.1286 71.963L16.2217 60ZM26.6445 58.8414L23.5527 47.3025L29.5257 36.9568V40.8038C29.5257 43.4589 30.0647 45.9881 31.039 48.2879C29.5026 50.2571 28.3274 52.5606 27.6402 55.1252L26.6445 58.8414ZM14.7395 14.4114L15.1781 16.0481L29.5257 7.76442V-8.80257L27.8856 -8.36309C17.9671 -5.70543 12.0814 4.49104 14.7395 14.4114ZM30.1255 7.41815V-8.96327L45.9487 -13.2031L42.3079 0.384655L30.1255 7.41815ZM43.0424 -0.0394363L46.6176 -13.3823L59.9605 -16.9575L53.7681 -6.2319L43.0424 -0.0394363ZM46.7969 -14.0514L60.3847 -17.6922L67.4183 -29.8748H51.0368L46.7969 -14.0514ZM54.8069 -6.83168L60.7798 -17.1771L72.3187 -20.2689L69.5973 -17.5475C67.7205 -15.6707 66.3135 -13.5018 65.3766 -11.1872C62.8985 -10.8813 60.4397 -10.0838 58.1412 -8.75675L54.8069 -6.83168ZM61.204 -17.9118L73.1671 -21.1173L81.9246 -29.8748H68.1108L61.204 -17.9118ZM70.0215 -17.1234L73.4775 -20.5794L78.2005 -21.845C80.5737 -22.4808 82.9627 -22.6275 85.2606 -22.3468C81.1254 -16.4385 80.5107 -8.43666 84.3356 -1.77284C80.4771 -8.41709 73.24 -11.8856 66.0558 -11.2587C66.9618 -13.3895 68.2837 -15.3857 70.0215 -17.1234ZM78.0453 -22.4244C80.6085 -23.1112 83.1897 -23.2452 85.6622 -22.8993C87.1661 -24.8923 89.0861 -26.6229 91.3845 -27.9499L94.7185 -29.8748H82.7729L74.3258 -21.4278L78.0453 -22.4244ZM30.1255 -9.5843L46.128 -13.8722L50.4158 -29.8748H48.7178C38.4496 -29.8748 30.1255 -21.5489 30.1255 -11.2785V-9.5843ZM224.822 103.952L225.261 105.589C227.919 115.509 222.033 125.706 212.115 128.363L210.475 128.803V112.236L224.822 103.952ZM225.199 103.042L226.669 102.193C235.562 97.0587 238.609 85.6865 233.474 76.7925L232.626 75.3245L220.912 87.039L225.199 103.042ZM220.422 87.5287L224.662 103.352L210.475 111.543V97.476L220.422 87.5287ZM220.732 86.3699L232.316 74.7867L224.125 60.5998L217.091 72.7819L220.732 86.3699ZM216.667 73.5165L220.243 86.8597L210.475 96.6277V84.2427L216.667 73.5165ZM216.872 71.9626L223.778 60L216.872 48.0371L213.666 59.9995L216.872 71.9626ZM213.356 61.1581L216.448 72.6972L210.475 83.0431V79.1961C210.475 76.5411 209.936 74.0119 208.961 71.7121C210.498 69.7429 211.673 67.4394 212.36 64.8748L213.356 61.1581ZM210.475 36.9573V40.8038C210.475 43.4589 209.936 45.988 208.961 48.2878C210.498 50.2571 211.673 52.5606 212.36 55.1253L213.356 58.8408L216.448 47.3026L210.475 36.9573ZM208.684 48.9118C210.077 50.7624 211.145 52.9059 211.781 55.2805L213.045 59.9995L211.781 64.7196C211.144 67.0941 210.076 69.2376 208.684 71.0881C205.63 64.5439 198.996 60.0072 191.301 60C198.996 59.9928 205.631 55.4561 208.684 48.9118ZM53.1682 -5.19292L42.8228 0.779972L39.7311 12.3184L42.4525 9.59709C44.3295 7.72009 46.4985 6.31312 48.8133 5.37615C49.1193 2.89762 49.9171 0.438221 51.2444 -1.86076L53.1682 -5.19292ZM42.0883 1.20406L30.1255 8.11079V21.9241L38.8829 13.1666L42.0883 1.20406ZM15.5292 60L7.24552 45.6523L6.04596 46.8519C-1.21556 54.1134 -1.21557 65.8867 6.04595 73.1482L7.2455 74.3477L15.5292 60ZM7.68458 74.7868L15.8754 60.5998L22.909 72.7823L19.2681 86.3704L7.68458 74.7868ZM19.7578 86.8601L23.3331 73.5169L29.5256 84.2427L29.5256 96.6279L19.7578 86.8601ZM30.1254 97.2276L30.1254 85.2815L32.0494 88.6139C33.3768 90.913 35.1079 92.8336 37.1015 94.338C36.7556 96.8115 36.8896 99.3939 37.5767 101.958L38.5726 105.675L30.1254 97.2276ZM38.1561 101.803C37.5198 99.4287 37.3731 97.0384 37.6539 94.7395C43.56 98.8731 51.5571 99.4893 58.2183 95.6698C51.5796 99.5288 48.1147 106.763 48.7416 113.945C46.6106 113.039 44.6144 111.717 42.8766 109.979L39.4208 106.523L38.1561 101.803ZM188.236 121.561L185.793 125.793L181.559 128.237C179.431 129.466 177.161 130.226 174.869 130.55C177.334 123.773 175.857 115.885 170.439 110.438C175.885 115.857 183.772 117.334 190.549 114.869C190.226 117.162 189.465 119.432 188.236 121.561ZM197.177 119.22L186.832 125.193L188.756 121.861C190.083 119.562 190.881 117.102 191.187 114.624C193.502 113.687 195.671 112.28 197.548 110.403L200.269 107.682L197.177 119.22ZM209.875 111.889L197.912 118.796L201.117 106.833L209.875 98.0758V111.889ZM232.755 74.3476L233.954 73.1482C241.216 65.8867 241.216 54.1134 233.954 46.8519L232.755 45.6524L224.471 60L232.755 74.3476ZM220.732 33.6299L217.091 47.2178L224.125 59.4002L232.316 45.2134L220.732 33.6299ZM216.667 46.4832L220.242 33.1402L210.475 23.3725V35.7577L216.667 46.4832ZM209.875 34.7189V22.7728L201.428 14.326L202.424 18.0417C203.111 20.6063 203.245 23.1887 202.899 25.6623C204.892 27.1666 206.623 29.0872 207.951 31.3862L209.875 34.7189ZM202.347 25.2608C202.627 22.9618 202.481 20.5714 201.844 18.1969L200.58 13.4778L197.123 10.0212C195.386 8.28341 193.389 6.96149 191.258 6.05545C191.886 13.2443 188.413 20.4856 181.762 24.3417C188.427 20.5094 196.435 21.1229 202.347 25.2608ZM38.5724 14.3254L30.1255 22.7723V34.7184L32.0494 31.3861C33.3768 29.0871 35.1079 27.1664 37.1014 25.6621C36.7555 23.1886 36.8895 20.6062 37.5767 18.0417L38.5724 14.3254ZM6.52662 76.7924L7.37409 75.3246L19.0889 87.0394L14.8011 103.042L13.3313 102.193C4.43822 97.0587 1.39168 85.6864 6.52662 76.7924ZM15.3388 103.352L19.5786 87.5291L29.5256 97.4762V111.543L15.3388 103.352ZM30.1254 111.889V98.0759L38.8831 106.834L42.0884 118.796L30.1254 111.889ZM42.823 119.22L39.7313 107.682L42.4525 110.403C44.3294 112.28 46.4984 113.687 48.8131 114.624C49.1191 117.102 49.9169 119.562 51.2442 121.861L53.168 125.193L42.823 119.22ZM51.7636 121.561C50.5347 119.432 49.7744 117.162 49.4507 114.869C56.2424 117.339 64.1496 115.85 69.597 110.403L69.5973 110.403C64.1498 115.85 62.6612 123.758 65.1317 130.55C62.8392 130.226 60.5692 129.466 58.4411 128.237L54.2068 125.793L51.7636 121.561ZM42.8766 10.0212L39.4206 13.4772L38.156 18.1969C37.5198 20.5714 37.373 22.9616 37.6539 25.2606C43.5659 21.1228 51.5732 20.5095 58.2385 24.3419C51.5868 20.4858 48.1142 13.2444 48.7417 6.05539C46.6107 6.96143 44.6145 8.28337 42.8766 10.0212ZM200.579 106.523L197.123 109.979C195.386 111.717 193.389 113.039 191.258 113.945C191.886 106.751 188.409 99.5053 181.749 95.651C188.417 99.4914 196.431 98.8799 202.346 94.7395C202.627 97.0384 202.48 99.4287 201.844 101.803L200.579 106.523ZM209.875 97.2275L201.428 105.675L202.423 101.958C203.111 99.3939 203.245 96.8115 202.899 94.338C204.892 92.8336 206.623 90.913 207.951 88.6139L209.875 85.2815V97.2275ZM232.626 44.6756L233.474 43.2076C238.609 34.3136 235.562 22.9414 226.669 17.8069L225.199 16.9584L220.911 32.9609L232.626 44.6756ZM220.422 32.4712L224.661 16.6479L210.475 8.45721V22.5243L220.422 32.4712ZM209.875 21.9245V8.11095L197.912 1.20425L201.118 13.1672L209.875 21.9245ZM200.269 12.319L197.178 0.780151L186.832 -5.19294L188.756 -1.86074C190.083 0.438255 190.881 2.89766 191.187 5.37621C193.502 6.31317 195.671 7.72014 197.548 9.59708L200.269 12.319ZM190.549 5.13131C190.226 2.83829 189.465 0.567745 188.236 -1.56085L185.793 -5.79273L181.559 -8.23727C179.431 -9.46584 177.161 -10.2259 174.869 -10.5496C177.335 -3.77026 175.856 4.12041 170.433 9.56693C175.88 4.14413 183.77 2.6656 190.549 5.13131ZM58.1412 128.757C60.4397 130.084 62.8985 130.881 65.3766 131.187C66.3136 133.502 67.7205 135.671 69.5973 137.548L72.3188 140.269L60.7796 137.177L54.8067 126.832L58.1412 128.757ZM43.0425 120.04L53.7678 126.232L59.9603 136.958L46.6177 133.382L43.0425 120.04ZM30.1254 112.582L42.3079 119.615L45.9488 133.203L30.1254 128.963V112.582ZM29.5256 112.236L15.1781 103.952L14.7395 105.589C12.0814 115.509 17.9671 125.705 27.8856 128.363L29.5256 128.803V112.236ZM30.1255 40.8038V35.918L32.5688 31.686C33.7978 29.5574 35.3841 27.7636 37.2081 26.3367C38.4627 33.4438 43.6917 39.54 51.1155 41.5424C43.6852 39.5647 36.1088 42.2296 31.4687 47.757C30.6024 45.609 30.1255 43.2621 30.1255 40.8038ZM84.325 121.791C80.4638 128.423 73.2335 131.885 66.0558 131.259C66.9619 133.39 68.2837 135.386 70.0214 137.123L73.4775 140.579L78.2006 141.845C80.5737 142.481 82.9627 142.628 85.2605 142.347C81.1291 136.444 80.5117 128.451 84.325 121.791ZM209.875 84.0819L207.431 88.314C206.202 90.4427 204.616 92.2365 202.792 93.6634C201.536 86.5463 196.294 80.4429 188.853 78.4492C196.294 80.4429 203.885 77.7782 208.532 72.243C209.398 74.3909 209.875 76.7378 209.875 79.1961V84.0819ZM224.822 16.0481L225.261 14.4114C227.919 4.49103 222.033 -5.70545 212.115 -8.36311L210.475 -8.80254V7.76458L224.822 16.0481ZM209.875 7.4183V-8.96324L194.052 -13.203L197.693 0.38485L209.875 7.4183ZM196.958 -0.0392494L193.383 -13.3823L180.04 -16.9576L186.232 -6.2319L196.958 -0.0392494ZM185.193 -6.83169L179.22 -17.1771L167.682 -20.2689L170.403 -17.5475C172.28 -15.6706 173.687 -13.5018 174.624 -11.1872C177.102 -10.8812 179.561 -10.0837 181.859 -8.75675L185.193 -6.83169ZM166.833 -21.1172L158.076 -29.8748L171.889 -29.8748L178.796 -17.9118L166.833 -21.1172ZM154.338 -22.8993C152.834 -24.8923 150.914 -26.6229 148.616 -27.9499L145.282 -29.8748H157.228L165.675 -21.4277L161.955 -22.4244C159.392 -23.1112 156.811 -23.2452 154.338 -22.8993ZM153.663 -22.7926C146.56 -21.5385 140.467 -16.3131 138.46 -8.89397C140.432 -16.3224 137.767 -23.8947 132.243 -28.5323C134.39 -29.3982 136.735 -29.8748 139.192 -29.8748H144.082L148.316 -27.4304C150.444 -26.2018 152.237 -24.6161 153.663 -22.7926ZM30.1254 131.278V129.584L46.128 133.872L50.4159 149.875H48.7177C38.4495 149.875 30.1254 141.549 30.1254 131.278ZM51.0368 149.875L46.797 134.051L60.3845 137.692L67.418 149.875H51.0368ZM68.1106 149.875L61.2038 137.912L73.1671 141.117L81.9245 149.875H68.1106ZM82.7728 149.875L74.3259 141.428L78.0453 142.424C80.6085 143.111 83.1896 143.245 85.6621 142.899C87.166 144.892 89.086 146.623 91.3844 147.95L94.7182 149.875H82.7728ZM91.6843 147.43C89.5564 146.202 87.7632 144.616 86.3367 142.793C93.4314 141.54 99.5196 136.325 101.533 128.92C99.5742 136.34 102.239 143.9 107.757 148.532C105.61 149.398 103.265 149.875 100.808 149.875H95.9179L91.6843 147.43ZM209.875 -9.58427V-11.2785C209.875 -21.549 201.551 -29.8748 191.283 -29.8748H189.585L193.873 -13.8721L209.875 -9.58427ZM193.204 -14.0514L188.964 -29.8748H172.582L179.615 -17.6923L193.204 -14.0514ZM157.476 -30.4747L147.529 -40.4215L163.352 -44.6613L171.543 -30.4747L157.476 -30.4747ZM131.712 -28.962C134.011 -29.936 136.539 -30.4747 139.192 -30.4747H143.043L132.698 -36.4475L121.159 -33.3557L124.878 -32.3591C127.442 -31.6723 129.744 -30.4978 131.712 -28.962ZM144.243 -30.4747L133.517 -36.667L146.86 -40.2423L156.628 -30.4747H144.243ZM131.088 -28.6844C124.556 -25.6365 120.024 -19.0181 120 -11.3384C119.977 -19.0181 115.445 -25.6365 108.912 -28.6844C110.762 -30.0763 112.904 -31.1438 115.277 -31.7797L120 -33.0452L124.723 -31.7797C127.096 -31.1438 129.238 -30.0763 131.088 -28.6844ZM51.6361 152.111L51.1975 150.475H67.7644L76.048 164.822L74.4082 165.262C64.4897 167.919 54.2943 162.032 51.6361 152.111ZM76.6478 164.661L68.457 150.475H82.5244L92.4714 160.422L76.6478 164.661ZM107.302 156.448L96.9569 150.475H100.808C103.462 150.475 105.989 149.936 108.288 148.962C110.256 150.498 112.559 151.672 115.122 152.359L118.841 153.356L107.302 156.448ZM93.1404 160.242L83.3727 150.475H95.7573L106.483 156.667L93.1404 160.242ZM115.277 151.78C112.904 151.144 110.762 150.076 108.912 148.684C115.44 145.639 119.971 139.027 120 131.353C120.029 139.027 124.56 145.639 131.088 148.684C129.239 150.076 127.096 151.144 124.723 151.78L120 153.045L115.277 151.78ZM188.803 -30.4747L188.364 -32.1113C185.706 -42.0316 175.511 -47.9192 165.592 -45.2615L163.952 -44.822L172.236 -30.4747H188.803ZM147.039 -40.9113L135.325 -52.6261L136.794 -53.4746C145.687 -58.609 157.059 -55.5613 162.194 -46.6673L163.042 -45.1992L147.039 -40.9113ZM108.288 -28.962C110.257 -30.4978 112.559 -31.6723 115.122 -32.3591L118.841 -33.3557L107.303 -36.4475L96.9573 -30.4747H100.808C103.462 -30.4747 105.99 -29.936 108.288 -28.962ZM120 -33.6662L131.963 -36.8716L120 -43.7785L108.037 -36.8717L120 -33.6662ZM132.782 -37.0912L120.6 -44.1248L134.787 -52.3156L146.37 -40.7321L132.782 -37.0912ZM95.7576 -30.4747L106.483 -36.6671L93.1403 -40.2423L83.3727 -30.4747H95.7576ZM107.218 -37.0912L119.4 -44.1248L105.214 -52.3155L93.6301 -40.732L107.218 -37.0912ZM120 -44.4711L105.653 -52.7546L106.852 -53.954C114.114 -61.2156 125.887 -61.2156 133.148 -53.954L134.348 -52.7547L120 -44.4711ZM92.9611 -40.9113L76.9584 -45.1992L77.806 -46.6673C82.9409 -55.5613 94.3129 -58.609 103.206 -53.4746L104.676 -52.626L92.9611 -40.9113ZM92.4713 -40.4215L82.5245 -30.4747H68.4572L76.6479 -44.6614L92.4713 -40.4215ZM67.7646 -30.4747H51.1975L51.636 -32.1113C54.2942 -42.0317 64.4896 -47.9192 74.4081 -45.2615L76.0481 -44.8221L67.7646 -30.4747ZM77.8058 166.667L76.9583 165.199L92.9612 160.911L104.676 172.626L103.206 173.475C94.3127 178.609 82.9408 175.561 77.8058 166.667ZM107.218 157.091L119.4 164.125L105.214 172.315L93.6302 160.732L107.218 157.091ZM120 163.778L108.037 156.872L120 153.666L131.963 156.872L120 163.778ZM132.698 156.448L121.159 153.356L124.878 152.359C127.442 151.672 129.744 150.498 131.712 148.962C134.011 149.936 136.539 150.475 139.192 150.475H143.043L132.698 156.448ZM106.852 173.954L105.653 172.755L120 164.471L134.348 172.755L133.148 173.954C125.887 181.216 114.114 181.216 106.852 173.954ZM134.787 172.316L120.6 164.125L132.782 157.091L146.37 160.732L134.787 172.316ZM156.628 150.475L146.86 160.242L133.517 156.667L144.243 150.475H156.628ZM136.794 173.475L135.325 172.626L147.039 160.911L163.042 165.199L162.194 166.667C157.059 175.561 145.687 178.609 136.794 173.475ZM171.543 150.475L163.352 164.661L147.529 160.422L157.476 150.475H171.543ZM188.803 150.475L188.364 152.111C185.706 162.032 175.511 167.919 165.592 165.262L163.952 164.822L172.235 150.475H188.803Z" fill="url(#paint0_linear_35_6172)"/>
<defs>
<linearGradient id="paint0_linear_35_6172" x1="120" y1="-18.5455" x2="120" y2="180" gradientUnits="userSpaceOnUse">
<stop stop-color="#0CEAF8" stop-opacity="0.08"/>
<stop offset="0.223958" stop-color="#580CF8" stop-opacity="0.24"/>
<stop offset="1" stop-color="#6BFFAF" stop-opacity="0.7"/>
</linearGradient>
</defs>
</svg>
